  0
SECTION
  2
HEADER
  9
$ACADVER
  1
AC1018
  9
$ACADMAINTVER
 70
     0
  9
$DWGCODEPAGE
  3
ANSI_1252
  9
$INSBASE
 10
0.0
 20
0.0
 30
0.0
  9
$EXTMIN
 10
1.000000000000000E+20
 20
1.000000000000000E+20
 30
1.000000000000000E+20
  9
$EXTMAX
 10
-1.000000000000000E+20
 20
-1.000000000000000E+20
 30
-1.000000000000000E+20
  9
$LIMMIN
 10
0.0
 20
0.0
  9
$LIMMAX
 10
12.0
 20
9.0
  9
$ORTHOMODE
 70
     0
  9
$REGENMODE
 70
     1
  9
$FILLMODE
 70
     1
  9
$QTEXTMODE
 70
     0
  9
$MIRRTEXT
 70
     1
  9
$LTSCALE
 40
1.0
  9
$ATTMODE
 70
     1
  9
$TEXTSIZE
 40
0.2
  9
$TRACEWID
 40
0.05
  9
$TEXTSTYLE
  7
Standard
  9
$CLAYER
  8
0
  9
$CELTYPE
  6
ByLayer
  9
$CECOLOR
 62
   256
  9
$CELTSCALE
 40
1.0
  9
$DISPSILH
 70
     0
  9
$DIMSCALE
 40
1.0
  9
$DIMASZ
 40
0.18
  9
$DIMEXO
 40
0.0625
  9
$DIMDLI
 40
0.38
  9
$DIMRND
 40
0.0
  9
$DIMDLE
 40
0.0
  9
$DIMEXE
 40
0.18
  9
$DIMTP
 40
0.0
  9
$DIMTM
 40
0.0
  9
$DIMTXT
 40
0.18
  9
$DIMCEN
 40
0.09
  9
$DIMTSZ
 40
0.0
  9
$DIMTOL
 70
     0
  9
$DIMLIM
 70
     0
  9
$DIMTIH
 70
     1
  9
$DIMTOH
 70
     1
  9
$DIMSE1
 70
     0
  9
$DIMSE2
 70
     0
  9
$DIMTAD
 70
     0
  9
$DIMZIN
 70
     0
  9
$DIMBLK
  1

  9
$DIMASO
 70
     1
  9
$DIMSHO
 70
     1
  9
$DIMPOST
  1

  9
$DIMAPOST
  1

  9
$DIMALT
 70
     0
  9
$DIMALTD
 70
     2
  9
$DIMALTF
 40
25.4
  9
$DIMLFAC
 40
1.0
  9
$DIMTOFL
 70
     0
  9
$DIMTVP
 40
0.0
  9
$DIMTIX
 70
     0
  9
$DIMSOXD
 70
     0
  9
$DIMSAH
 70
     0
  9
$DIMBLK1
  1

  9
$DIMBLK2
  1

  9
$DIMSTYLE
  2
Standard
  9
$DIMCLRD
 70
     0
  9
$DIMCLRE
 70
     0
  9
$DIMCLRT
 70
     0
  9
$DIMTFAC
 40
1.0
  9
$DIMGAP
 40
0.09
  9
$DIMJUST
 70
     0
  9
$DIMSD1
 70
     0
  9
$DIMSD2
 70
     0
  9
$DIMTOLJ
 70
     1
  9
$DIMTZIN
 70
     0
  9
$DIMALTZ
 70
     0
  9
$DIMALTTZ
 70
     0
  9
$DIMUPT
 70
     0
  9
$DIMDEC
 70
     4
  9
$DIMTDEC
 70
     4
  9
$DIMALTU
 70
     2
  9
$DIMALTTD
 70
     2
  9
$DIMTXSTY
  7
Standard
  9
$DIMAUNIT
 70
     0
  9
$DIMADEC
 70
     0
  9
$DIMALTRND
 40
0.0
  9
$DIMAZIN
 70
     0
  9
$DIMDSEP
 70
    46
  9
$DIMATFIT
 70
     3
  9
$DIMFRAC
 70
     0
  9
$DIMLDRBLK
  1

  9
$DIMLUNIT
 70
     2
  9
$DIMLWD
 70
    -2
  9
$DIMLWE
 70
    -2
  9
$DIMTMOVE
 70
     0
  9
$LUNITS
 70
     2
  9
$LUPREC
 70
     4
  9
$SKETCHINC
 40
0.1
  9
$FILLETRAD
 40
0.5
  9
$AUNITS
 70
     0
  9
$AUPREC
 70
     0
  9
$MENU
  1
.
  9
$ELEVATION
 40
0.0
  9
$PELEVATION
 40
0.0
  9
$THICKNESS
 40
0.0
  9
$LIMCHECK
 70
     0
  9
$CHAMFERA
 40
0.5
  9
$CHAMFERB
 40
0.5
  9
$CHAMFERC
 40
1.0
  9
$CHAMFERD
 40
0.0
  9
$SKPOLY
 70
     0
  9
$TDCREATE
 40
2459273.702932789
  9
$TDUCREATE
 40
2459273.952932789
  9
$TDUPDATE
 40
2459273.702932801
  9
$TDUUPDATE
 40
2459273.952932801
  9
$TDINDWG
 40
0.0000000116
  9
$TDUSRTIMER
 40
0.0000000116
  9
$USRTIMER
 70
     1
  9
$ANGBASE
 50
0.0
  9
$ANGDIR
 70
     0
  9
$PDMODE
 70
     0
  9
$PDSIZE
 40
0.0
  9
$PLINEWID
 40
0.0
  9
$SPLFRAME
 70
     0
  9
$SPLINETYPE
 70
     6
  9
$SPLINESEGS
 70
     8
  9
$HANDSEED
  5
88
  9
$SURFTAB1
 70
     6
  9
$SURFTAB2
 70
     6
  9
$SURFTYPE
 70
     6
  9
$SURFU
 70
     6
  9
$SURFV
 70
     6
  9
$UCSBASE
  2

  9
$UCSNAME
  2

  9
$UCSORG
 10
0.0
 20
0.0
 30
0.0
  9
$UCSXDIR
 10
1.0
 20
0.0
 30
0.0
  9
$UCSYDIR
 10
0.0
 20
1.0
 30
0.0
  9
$UCSORTHOREF
  2

  9
$UCSORTHOVIEW
 70
     0
  9
$UCSORGTOP
 10
0.0
 20
0.0
 30
0.0
  9
$UCSORGBOTTOM
 10
0.0
 20
0.0
 30
0.0
  9
$UCSORGLEFT
 10
0.0
 20
0.0
 30
0.0
  9
$UCSORGRIGHT
 10
0.0
 20
0.0
 30
0.0
  9
$UCSORGFRONT
 10
0.0
 20
0.0
 30
0.0
  9
$UCSORGBACK
 10
0.0
 20
0.0
 30
0.0
  9
$PUCSBASE
  2

  9
$PUCSNAME
  2

  9
$PUCSORG
 10
0.0
 20
0.0
 30
0.0
  9
$PUCSXDIR
 10
1.0
 20
0.0
 30
0.0
  9
$PUCSYDIR
 10
0.0
 20
1.0
 30
0.0
  9
$PUCSORTHOREF
  2

  9
$PUCSORTHOVIEW
 70
     0
  9
$PUCSORGTOP
 10
0.0
 20
0.0
 30
0.0
  9
$PUCSORGBOTTOM
 10
0.0
 20
0.0
 30
0.0
  9
$PUCSORGLEFT
 10
0.0
 20
0.0
 30
0.0
  9
$PUCSORGRIGHT
 10
0.0
 20
0.0
 30
0.0
  9
$PUCSORGFRONT
 10
0.0
 20
0.0
 30
0.0
  9
$PUCSORGBACK
 10
0.0
 20
0.0
 30
0.0
  9
$USERI1
 70
     0
  9
$USERI2
 70
     0
  9
$USERI3
 70
     0
  9
$USERI4
 70
     0
  9
$USERI5
 70
     0
  9
$USERR1
 40
0.0
  9
$USERR2
 40
0.0
  9
$USERR3
 40
0.0
  9
$USERR4
 40
0.0
  9
$USERR5
 40
0.0
  9
$WORLDVIEW
 70
     1
  9
$SHADEDGE
 70
     3
  9
$SHADEDIF
 70
    70
  9
$TILEMODE
 70
     1
  9
$MAXACTVP
 70
    64
  9
$PINSBASE
 10
0.0
 20
0.0
 30
0.0
  9
$PLIMCHECK
 70
     0
  9
$PEXTMIN
 10
1.000000000000000E+20
 20
1.000000000000000E+20
 30
1.000000000000000E+20
  9
$PEXTMAX
 10
-1.000000000000000E+20
 20
-1.000000000000000E+20
 30
-1.000000000000000E+20
  9
$PLIMMIN
 10
0.0
 20
0.0
  9
$PLIMMAX
 10
12.0
 20
9.0
  9
$UNITMODE
 70
     0
  9
$VISRETAIN
 70
     1
  9
$PLINEGEN
 70
     0
  9
$PSLTSCALE
 70
     1
  9
$TREEDEPTH
 70
  3020
  9
$CMLSTYLE
  2
Standard
  9
$CMLJUST
 70
     0
  9
$CMLSCALE
 40
1.0
  9
$PROXYGRAPHICS
 70
     1
  9
$MEASUREMENT
 70
     0
  9
$CELWEIGHT
370
    -1
  9
$ENDCAPS
280
     0
  9
$JOINSTYLE
280
     0
  9
$LWDISPLAY
290
     1
  9
$INSUNITS
 70
     1
  9
$HYPERLINKBASE
  1

  9
$STYLESHEET
  1

  9
$XEDIT
290
     1
  9
$CEPSNTYPE
380
     0
  9
$PSTYLEMODE
290
     1
  9
$FINGERPRINTGUID
  2
{669E20D8-6290-4320-B165-72D031804F01}
  9
$VERSIONGUID
  2
{FAEB1C32-E019-11D5-929B-00C0DF256EC4}
  9
$EXTNAMES
290
     1
  9
$PSVPSCALE
 40
0.0
  9
$OLESTARTUP
290
     0
  9
$SORTENTS
280
   127
  9
$INDEXCTL
280
     0
  9
$HIDETEXT
280
     1
  9
$XCLIPFRAME
290
     0
  9
$HALOGAP
280
     0
  9
$OBSCOLOR
 70
   257
  9
$OBSLTYPE
280
     0
  9
$INTERSECTIONDISPLAY
280
     0
  9
$INTERSECTIONCOLOR
 70
   257
  9
$DIMASSOC
280
     2
  9
$PROJECTNAME
  1

  0
ENDSEC
  0
SECTION
  2
CLASSES
  0
CLASS
  1
ACDBDICTIONARYWDFLT
  2
AcDbDictionaryWithDefault
  3
ObjectDBX Classes
 90
        0
 91
        3
280
     0
281
     0
  0
CLASS
  1
VISUALSTYLE
  2
AcDbVisualStyle
  3
ObjectDBX Classes
 90
     4095
 91
        3
280
     0
281
     0
  0
ENDSEC
  0
SECTION
  2
TABLES
  0
TABLE
  2
VPORT
  5
8
330
0
100
AcDbSymbolTable
 70
     1
  0
VPORT
  5
29
330
8
100
AcDbSymbolTableRecord
100
AcDbViewportTableRecord
  2
*Active
 70
     0
 10
0.0
 20
0.0
 11
1.0
 21
1.0
 12
0.0
 22
0.0
 13
0.0
 23
0.0
 14
0.5
 24
0.5
 15
0.5
 25
0.5
 16
0.0
 26
0.0
 36
1.0
 17
5.0
 27
-5.0
 37
0.0
 40
10.0
 41
1.0
 42
50.0
 43
0.0
 44
0.0
 50
0.0
 51
0.0
 71
     0
 72
   100
 73
     1
 74
     3
 75
     0
 76
     0
 77
     0
 78
     0
281
     0
 65
     1
110
0.0
120
0.0
130
0.0
111
1.0
121
0.0
131
0.0
112
0.0
122
1.0
132
0.0
 79
     0
146
0.0
  0
ENDTAB
  0
TABLE
  2
LTYPE
  5
5
330
0
100
AcDbSymbolTable
 70
     1
  0
LTYPE
  5
14
330
5
100
AcDbSymbolTableRecord
100
AcDbLinetypeTableRecord
  2
ByBlock
 70
     0
  3

 72
    65
 73
     0
 40
0.0
  0
LTYPE
  5
15
330
5
100
AcDbSymbolTableRecord
100
AcDbLinetypeTableRecord
  2
ByLayer
 70
     0
  3

 72
    65
 73
     0
 40
0.0
  0
LTYPE
  5
16
330
5
100
AcDbSymbolTableRecord
100
AcDbLinetypeTableRecord
  2
Continuous
 70
     0
  3
Solid line
 72
    65
 73
     0
 40
0.0
  0
ENDTAB
  0
TABLE
  2
LAYER
  5
2
330
0
100
AcDbSymbolTable
 70
     2
  0
LAYER
  5
10
330
2
100
AcDbSymbolTableRecord
100
AcDbLayerTableRecord
  2
0
 70
     0
 62
     7
  6
Continuous
370
    -3
390
F
  0
LAYER
  5
3B
330
2
100
AcDbSymbolTableRecord
100
AcDbLayerTableRecord
  2
Layer 1
 70
     0
 62
     7
  6
Continuous
370
    -3
390
F
  0
ENDTAB
  0
TABLE
  2
STYLE
  5
3
330
0
100
AcDbSymbolTable
 70
     1
  0
STYLE
  5
11
330
3
100
AcDbSymbolTableRecord
100
AcDbTextStyleTableRecord
  2
Standard
 70
     0
 40
0.0
 41
1.0
 50
0.0
 71
     0
 42
0.2
  3
txt
  4

  0
ENDTAB
  0
TABLE
  2
VIEW
  5
6
330
0
100
AcDbSymbolTable
 70
     0
  0
ENDTAB
  0
TABLE
  2
UCS
  5
7
330
0
100
AcDbSymbolTable
 70
     0
  0
ENDTAB
  0
TABLE
  2
APPID
  5
9
330
0
100
AcDbSymbolTable
 70
     1
  0
APPID
  5
12
330
9
100
AcDbSymbolTableRecord
100
AcDbRegAppTableRecord
  2
ACAD
 70
     0
  0
ENDTAB
  0
TABLE
  2
DIMSTYLE
  5
A
330
0
100
AcDbSymbolTable
 70
     1
100
AcDbDimStyleTable
  0
DIMSTYLE
105
27
330
A
100
AcDbSymbolTableRecord
100
AcDbDimStyleTableRecord
  2
Standard
 70
     0
340
11
  0
ENDTAB
  0
TABLE
  2
BLOCK_RECORD
  5
1
330
0
100
AcDbSymbolTable
 70
     6
  0
BLOCK_RECORD
  5
1F
330
1
100
AcDbSymbolTableRecord
100
AcDbBlockTableRecord
  2
*Model_Space
340
22
  0
BLOCK_RECORD
  5
1B
330
1
100
AcDbSymbolTableRecord
100
AcDbBlockTableRecord
  2
*Paper_Space
340
1E
  0
BLOCK_RECORD
  5
23
330
1
100
AcDbSymbolTableRecord
100
AcDbBlockTableRecord
  2
*Paper_Space0
340
26
  0
BLOCK_RECORD
  5
3C
330
1
100
AcDbSymbolTableRecord
100
AcDbBlockTableRecord
  2
block 2
340
0
102
{BLKREFS
331
3D
102
}
  0
BLOCK_RECORD
  5
68
330
1
100
AcDbSymbolTableRecord
100
AcDbBlockTableRecord
  2
block 3
340
0
102
{BLKREFS
331
69
102
}
  0
BLOCK_RECORD
  5
76
330
1
100
AcDbSymbolTableRecord
100
AcDbBlockTableRecord
  2
block 4
340
0
102
{BLKREFS
331
77
102
}
  0
BLOCK_RECORD
  5
7C
330
1
100
AcDbSymbolTableRecord
100
AcDbBlockTableRecord
  2
block 5
340
0
102
{BLKREFS
331
7D
102
}
  0
BLOCK_RECORD
  5
82
330
1
100
AcDbSymbolTableRecord
100
AcDbBlockTableRecord
  2
block 6
340
0
102
{BLKREFS
331
83
102
}
  0
ENDTAB
  0
ENDSEC
  0
SECTION
  2
BLOCKS
  0
BLOCK
  5
20
330
1F
100
AcDbEntity
  8
0
100
AcDbBlockBegin
  2
*Model_Space
 70
     0
 71
     0
 10
0.0
 20
0.0
 30
0.0
  3
*Model_Space
  1

  0
ENDBLK
  5
21
330
1F
100
AcDbEntity
  8
0
100
AcDbBlockEnd
  0
BLOCK
  5
1C
330
1B
100
AcDbEntity
 67
     1
  8
0
100
AcDbBlockBegin
  2
*Paper_Space
 70
     0
 71
     0
 10
0.0
 20
0.0
 30
0.0
  3
*Paper_Space
  1

  0
ENDBLK
  5
1D
330
1B
100
AcDbEntity
 67
     1
  8
0
100
AcDbBlockEnd
  0
BLOCK
  5
24
330
23
100
AcDbEntity
  8
0
100
AcDbBlockBegin
  2
*Paper_Space0
 70
     0
 71
     0
 10
0.0
 20
0.0
 30
0.0
  3
*Paper_Space0
  1

  0
ENDBLK
  5
25
330
23
100
AcDbEntity
  8
0
100
AcDbBlockEnd
  0
BLOCK
  5
3E
330
3C
100
AcDbEntity
  8
0
100
AcDbBlockBegin
  2
block 2
 70
     0
 71
     0
 10
0.0
 20
0.0
 30
0.0
  3
block 2
  1

  0
POLYLINE
  5
40
330
3C
100
AcDbEntity
  8
Layer 1
 62
     7
370
    35
100
AcDb2dPolyline
 66
     1
 10
0.0
 20
0.0
 30
0.0
  0
VERTEX
  5
41
330
40
100
AcDbEntity
  8
Layer 1
 62
     7
370
    35
100
AcDbVertex
100
AcDb2dVertex
 10
2.095465766059028
 20
-3.490953233506944
 30
0.0
  0
VERTEX
  5
42
330
40
100
AcDbEntity
  8
Layer 1
 62
     7
370
    35
100
AcDbVertex
100
AcDb2dVertex
 10
2.095465766059028
 20
-3.004116482204861
 30
0.0
  0
VERTEX
  5
43
330
40
100
AcDbEntity
  8
Layer 1
 62
     7
370
    35
100
AcDbVertex
100
AcDb2dVertex
 10
2.149631076388889
 20
-3.004814995659722
 30
0.0
  0
VERTEX
  5
44
330
40
100
AcDbEntity
  8
Layer 1
 62
     7
370
    35
100
AcDbVertex
100
AcDb2dVertex
 10
2.386454264322917
 20
-3.347195095486111
 30
0.0
  0
VERTEX
  5
45
330
40
100
AcDbEntity
  8
Layer 1
 62
     7
370
    35
100
AcDbVertex
100
AcDb2dVertex
 10
2.386454264322917
 20
-3.004814995659722
 30
0.0
  0
VERTEX
  5
46
330
40
100
AcDbEntity
  8
Layer 1
 62
     7
370
    35
100
AcDbVertex
100
AcDb2dVertex
 10
2.455898708767361
 20
-3.004814995659722
 30
0.0
  0
VERTEX
  5
47
330
40
100
AcDbEntity
  8
Layer 1
 62
     7
370
    35
100
AcDbVertex
100
AcDb2dVertex
 10
2.455898708767361
 20
-3.490953233506944
 30
0.0
  0
VERTEX
  5
48
330
40
100
AcDbEntity
  8
Layer 1
 62
     7
370
    35
100
AcDbVertex
100
AcDb2dVertex
 10
2.400343153211805
 20
-3.490953233506944
 30
0.0
  0
VERTEX
  5
49
330
40
100
AcDbEntity
  8
Layer 1
 62
     7
370
    35
100
AcDbVertex
100
AcDb2dVertex
 10
2.165608723958333
 20
-3.151346842447917
 30
0.0
  0
VERTEX
  5
4A
330
40
100
AcDbEntity
  8
Layer 1
 62
     7
370
    35
100
AcDbVertex
100
AcDb2dVertex
 10
2.165608723958333
 20
-3.490953233506944
 30
0.0
  0
VERTEX
  5
4B
330
40
100
AcDbEntity
  8
Layer 1
 62
     7
370
    35
100
AcDbVertex
100
AcDb2dVertex
 10
2.095465766059028
 20
-3.490953233506944
 30
0.0
  0
SEQEND
  5
4C
330
40
100
AcDbEntity
  8
Layer 1
370
    35
  0
POLYLINE
  5
4D
330
3C
100
AcDbEntity
  8
Layer 1
 62
     7
370
    35
100
AcDb2dPolyline
 66
     1
 10
0.0
 20
0.0
 30
0.0
  0
VERTEX
  5
4E
330
4D
100
AcDbEntity
  8
Layer 1
 62
     7
370
    35
100
AcDbVertex
100
AcDb2dVertex
 10
4.076700846354166
 20
-3.420810275607639
 30
0.0
  0
VERTEX
  5
4F
330
4D
100
AcDbEntity
  8
Layer 1
 62
     7
370
    35
100
AcDbVertex
100
AcDb2dVertex
 10
4.305189344618055
 20
-3.420810275607639
 30
0.0
  0
VERTEX
  5
50
330
4D
100
AcDbEntity
  8
Layer 1
 62
     7
370
    35
100
AcDbVertex
100
AcDb2dVertex
 10
4.305189344618055
 20
-3.490953233506944
 30
0.0
  0
VERTEX
  5
51
330
4D
100
AcDbEntity
  8
Layer 1
 62
     7
370
    35
100
AcDbVertex
100
AcDb2dVertex
 10
4.006557888454861
 20
-3.490953233506944
 30
0.0
  0
VERTEX
  5
52
330
4D
100
AcDbEntity
  8
Layer 1
 62
     7
370
    35
100
AcDbVertex
100
AcDb2dVertex
 10
4.006557888454861
 20
-3.005506727430555
 30
0.0
  0
VERTEX
  5
53
330
4D
100
AcDbEntity
  8
Layer 1
 62
     7
370
    35
100
AcDbVertex
100
AcDb2dVertex
 10
4.076700846354166
 20
-3.005506727430555
 30
0.0
  0
VERTEX
  5
54
330
4D
100
AcDbEntity
  8
Layer 1
 62
     7
370
    35
100
AcDbVertex
100
AcDb2dVertex
 10
4.076700846354166
 20
-3.420810275607639
 30
0.0
  0
SEQEND
  5
55
330
4D
100
AcDbEntity
  8
Layer 1
370
    35
  0
POLYLINE
  5
56
330
3C
100
AcDbEntity
  8
Layer 1
 62
     7
370
    35
100
AcDb2dPolyline
 66
     1
 10
0.0
 20
0.0
 30
0.0
  0
VERTEX
  5
57
330
56
100
AcDbEntity
  8
Layer 1
 62
     7
370
    35
100
AcDbVertex
100
AcDb2dVertex
 10
5.586819118923611
 20
-3.004116482204861
 30
0.0
  0
VERTEX
  5
58
330
56
100
AcDbEntity
  8
Layer 1
 62
     7
370
    35
100
AcDbVertex
100
AcDb2dVertex
 10
6.064765082465278
 20
-3.004116482204861
 30
0.0
  0
VERTEX
  5
59
330
56
100
AcDbEntity
  8
Layer 1
 62
     7
370
    35
100
AcDbVertex
100
AcDb2dVertex
 10
6.065972222222222
 20
-3.005425347222222
 30
0.0
  0
VERTEX
  5
5A
330
56
100
AcDbEntity
  8
Layer 1
 62
     7
370
    35
100
AcDbVertex
100
AcDb2dVertex
 10
6.065972222222222
 20
-3.067023383246528
 30
0.0
  0
VERTEX
  5
5B
330
56
100
AcDbEntity
  8
Layer 1
 62
     7
370
    35
100
AcDbVertex
100
AcDb2dVertex
 10
6.064765082465278
 20
-3.068325466579861
 30
0.0
  0
VERTEX
  5
5C
330
56
100
AcDbEntity
  8
Layer 1
 62
     7
370
    35
100
AcDbVertex
100
AcDb2dVertex
 10
5.650919596354166
 20
-3.068325466579861
 30
0.0
  0
VERTEX
  5
5D
330
56
100
AcDbEntity
  8
Layer 1
 62
     7
370
    35
100
AcDbVertex
100
AcDb2dVertex
 10
5.650919596354166
 20
-3.411729600694444
 30
0.0
  0
VERTEX
  5
5E
330
56
100
AcDbEntity
  8
Layer 1
 62
     7
370
    35
100
AcDbVertex
100
AcDb2dVertex
 10
6.064765082465278
 20
-3.411729600694444
 30
0.0
  0
VERTEX
  5
5F
330
56
100
AcDbEntity
  8
Layer 1
 62
     7
370
    35
100
AcDbVertex
100
AcDb2dVertex
 10
6.065972222222222
 20
-3.41302490234375
 30
0.0
  0
VERTEX
  5
60
330
56
100
AcDbEntity
  8
Layer 1
 62
     7
370
    35
100
AcDbVertex
100
AcDb2dVertex
 10
6.065972222222222
 20
-3.485032823350694
 30
0.0
  0
VERTEX
  5
61
330
56
100
AcDbEntity
  8
Layer 1
 62
     7
370
    35
100
AcDbVertex
100
AcDb2dVertex
 10
6.064765082465278
 20
-3.486334906684028
 30
0.0
  0
VERTEX
  5
62
330
56
100
AcDbEntity
  8
Layer 1
 62
     7
370
    35
100
AcDbVertex
100
AcDb2dVertex
 10
5.586819118923611
 20
-3.486334906684028
 30
0.0
  0
VERTEX
  5
63
330
56
100
AcDbEntity
  8
Layer 1
 62
     7
370
    35
100
AcDbVertex
100
AcDb2dVertex
 10
5.585639105902778
 20
-3.485032823350694
 30
0.0
  0
VERTEX
  5
64
330
56
100
AcDbEntity
  8
Layer 1
 62
     7
370
    35
100
AcDbVertex
100
AcDb2dVertex
 10
5.585639105902778
 20
-3.005425347222222
 30
0.0
  0
VERTEX
  5
65
330
56
100
AcDbEntity
  8
Layer 1
 62
     7
370
    35
100
AcDbVertex
100
AcDb2dVertex
 10
5.586819118923611
 20
-3.004116482204861
 30
0.0
  0
SEQEND
  5
66
330
56
100
AcDbEntity
  8
Layer 1
370
    35
  0
SPLINE
  5
67
330
3C
100
AcDbEntity
  8
Layer 1
 62
     7
370
    35
100
AcDbSpline
210
0.0
220
0.0
230
1.0
 70
    11
 71
     3
 72
    26
 73
    22
 74
     0
 42
0.0000000001
 43
0.0000000001
 40
0.0
 40
0.0
 40
0.0
 40
0.0
 40
1.0
 40
1.0
 40
1.0
 40
2.0
 40
2.0
 40
2.0
 40
3.0
 40
3.0
 40
3.0
 40
4.0
 40
4.0
 40
4.0
 40
5.0
 40
5.0
 40
5.0
 40
6.0
 40
6.0
 40
6.0
 40
7.0
 40
7.0
 40
7.0
 40
7.0
 10
5.699300130208333
 20
-3.210523817274305
 30
0.0
 10
5.699300130208333
 20
-3.210523817274305
 30
0.0
 10
6.034776475694444
 20
-3.208184136284722
 30
0.0
 10
6.034776475694444
 20
-3.208184136284722
 30
0.0
 10
6.034776475694444
 20
-3.208184136284722
 30
0.0
 10
6.035970052083333
 20
-3.209479437934028
 30
0.0
 10
6.035970052083333
 20
-3.209479437934028
 30
0.0
 10
6.035970052083333
 20
-3.209479437934028
 30
0.0
 10
6.035970052083333
 20
-3.276292588975694
 30
0.0
 10
6.035970052083333
 20
-3.276292588975694
 30
0.0
 10
6.035970052083333
 20
-3.276292588975694
 30
0.0
 10
6.034776475694444
 20
-3.277594672309028
 30
0.0
 10
6.034776475694444
 20
-3.277594672309028
 30
0.0
 10
6.034776475694444
 20
-3.277594672309028
 30
0.0
 10
5.763861762152778
 20
-3.279927571614583
 30
0.0
 10
5.763861762152778
 20
-3.279927571614583
 30
0.0
 10
5.7291259765625
 20
-3.243882921006944
 30
0.0
 10
5.707614474826388
 20
-3.22100830078125
 30
0.0
 10
5.699300130208333
 20
-3.2113037109375
 30
0.0
 10
5.699300130208333
 20
-3.2113037109375
 30
0.0
 10
5.699300130208333
 20
-3.210523817274305
 30
0.0
 10
5.699300130208333
 20
-3.210523817274305
 30
0.0
  0
INSERT
  5
69
330
3C
100
AcDbEntity
  8
Layer 1
100
AcDbBlockReference
  2
block 3
 10
0.0
 20
0.0
 30
0.0
  0
INSERT
  5
77
330
3C
100
AcDbEntity
  8
Layer 1
100
AcDbBlockReference
  2
block 4
 10
0.0
 20
0.0
 30
0.0
  0
INSERT
  5
7D
330
3C
100
AcDbEntity
  8
Layer 1
100
AcDbBlockReference
  2
block 5
 10
0.0
 20
0.0
 30
0.0
  0
INSERT
  5
83
330
3C
100
AcDbEntity
  8
Layer 1
100
AcDbBlockReference
  2
block 6
 10
0.0
 20
0.0
 30
0.0
  0
ENDBLK
  5
3F
330
3C
100
AcDbEntity
  8
0
100
AcDbBlockEnd
  0
BLOCK
  5
6A
330
68
100
AcDbEntity
  8
0
100
AcDbBlockBegin
  2
block 3
 70
     0
 71
     0
 10
0.0
 20
0.0
 30
0.0
  3
block 3
  1

  0
POLYLINE
  5
6C
330
68
100
AcDbEntity
  8
Layer 1
 62
     7
370
    35
100
AcDb2dPolyline
 66
     1
 10
0.0
 20
0.0
 30
0.0
  0
VERTEX
  5
6D
330
6C
100
AcDbEntity
  8
Layer 1
 62
     7
370
    35
100
AcDbVertex
100
AcDb2dVertex
 10
3.627407497829861
 20
-3.420810275607639
 30
0.0
  0
VERTEX
  5
6E
330
6C
100
AcDbEntity
  8
Layer 1
 62
     7
370
    35
100
AcDbVertex
100
AcDb2dVertex
 10
3.627407497829861
 20
-3.075649685329861
 30
0.0
  0
VERTEX
  5
6F
330
6C
100
AcDbEntity
  8
Layer 1
 62
     7
370
    35
100
AcDbVertex
100
AcDb2dVertex
 10
3.627407497829861
 20
-3.005506727430555
 30
0.0
  0
VERTEX
  5
70
330
6C
100
AcDbEntity
  8
Layer 1
 62
     7
370
    35
100
AcDbVertex
100
AcDb2dVertex
 10
3.557264539930555
 20
-3.005506727430555
 30
0.0
  0
VERTEX
  5
71
330
6C
100
AcDbEntity
  8
Layer 1
 62
     7
370
    35
100
AcDbVertex
100
AcDb2dVertex
 10
3.557264539930555
 20
-3.490953233506944
 30
0.0
  0
VERTEX
  5
72
330
6C
100
AcDbEntity
  8
Layer 1
 62
     7
370
    35
100
AcDbVertex
100
AcDb2dVertex
 10
3.627407497829861
 20
-3.490953233506944
 30
0.0
  0
VERTEX
  5
73
330
6C
100
AcDbEntity
  8
Layer 1
 62
     7
370
    35
100
AcDbVertex
100
AcDb2dVertex
 10
3.627407497829861
 20
-3.420810275607639
 30
0.0
  0
SEQEND
  5
74
330
6C
100
AcDbEntity
  8
Layer 1
370
    35
  0
SPLINE
  5
75
330
68
100
AcDbEntity
  8
Layer 1
 62
     7
370
    35
100
AcDbSpline
210
0.0
220
0.0
230
1.0
 70
    11
 71
     3
 72
    35
 73
    31
 74
     0
 42
0.0000000001
 43
0.0000000001
 40
0.0
 40
0.0
 40
0.0
 40
0.0
 40
1.0
 40
1.0
 40
1.0
 40
2.0
 40
2.0
 40
2.0
 40
3.0
 40
3.0
 40
3.0
 40
4.0
 40
4.0
 40
4.0
 40
5.0
 40
5.0
 40
5.0
 40
6.0
 40
6.0
 40
6.0
 40
7.0
 40
7.0
 40
7.0
 40
8.0
 40
8.0
 40
8.0
 40
9.0
 40
9.0
 40
9.0
 40
10.0
 40
10.0
 40
10.0
 40
10.0
 10
3.731580946180555
 20
-3.005506727430555
 30
0.0
 10
3.731580946180555
 20
-3.005506727430555
 30
0.0
 10
3.71990966796875
 20
-3.005506727430555
 30
0.0
 10
3.71990966796875
 20
-3.005506727430555
 30
0.0
 10
3.71990966796875
 20
-3.005506727430555
 30
0.0
 10
3.71990966796875
 20
-3.075649685329861
 30
0.0
 10
3.71990966796875
 20
-3.075649685329861
 30
0.0
 10
3.71990966796875
 20
-3.075649685329861
 30
0.0
 10
3.731580946180555
 20
-3.075649685329861
 30
0.0
 10
3.731580946180555
 20
-3.075649685329861
 30
0.0
 10
3.844089084201389
 20
-3.075649685329861
 30
0.0
 10
3.901034884982639
 20
-3.162462022569444
 30
0.0
 10
3.901034884982639
 20
-3.248575846354167
 30
0.0
 10
3.901034884982639
 20
-3.334696451822917
 30
0.0
 10
3.844089084201389
 20
-3.420810275607639
 30
0.0
 10
3.731580946180555
 20
-3.420810275607639
 30
0.0
 10
3.731580946180555
 20
-3.420810275607639
 30
0.0
 10
3.71990966796875
 20
-3.420810275607639
 30
0.0
 10
3.71990966796875
 20
-3.420810275607639
 30
0.0
 10
3.71990966796875
 20
-3.420810275607639
 30
0.0
 10
3.71990966796875
 20
-3.490953233506944
 30
0.0
 10
3.71990966796875
 20
-3.490953233506944
 30
0.0
 10
3.71990966796875
 20
-3.490953233506944
 30
0.0
 10
3.731580946180555
 20
-3.490953233506944
 30
0.0
 10
3.731580946180555
 20
-3.490953233506944
 30
0.0
 10
3.890618218315972
 20
-3.490953233506944
 30
0.0
 10
3.970486111111111
 20
-3.370110405815972
 30
0.0
 10
3.970486111111111
 20
-3.248575846354167
 30
0.0
 10
3.970486111111111
 20
-3.127041286892361
 30
0.0
 10
3.890618218315972
 20
-3.005506727430555
 30
0.0
 10
3.731580946180555
 20
-3.005506727430555
 30
0.0
  0
ENDBLK
  5
6B
330
68
100
AcDbEntity
  8
0
100
AcDbBlockEnd
  0
BLOCK
  5
78
330
76
100
AcDbEntity
  8
0
100
AcDbBlockBegin
  2
block 4
 70
     0
 71
     0
 10
0.0
 20
0.0
 30
0.0
  3
block 4
  1

  0
SPLINE
  5
7A
330
76
100
AcDbEntity
  8
Layer 1
 62
     7
370
    35
100
AcDbSpline
210
0.0
220
0.0
230
1.0
 70
    11
 71
     3
 72
    35
 73
    31
 74
     0
 42
0.0000000001
 43
0.0000000001
 40
0.0
 40
0.0
 40
0.0
 40
0.0
 40
1.0
 40
1.0
 40
1.0
 40
2.0
 40
2.0
 40
2.0
 40
3.0
 40
3.0
 40
3.0
 40
4.0
 40
4.0
 40
4.0
 40
5.0
 40
5.0
 40
5.0
 40
6.0
 40
6.0
 40
6.0
 40
7.0
 40
7.0
 40
7.0
 40
8.0
 40
8.0
 40
8.0
 40
9.0
 40
9.0
 40
9.0
 40
10.0
 40
10.0
 40
10.0
 40
10.0
 10
3.219014485677083
 20
-3.419867621527778
 30
0.0
 10
3.189100477430555
 20
-3.411519368489583
 30
0.0
 10
3.162014431423611
 20
-3.395453559027778
 30
0.0
 10
3.140604654947917
 20
-3.373582628038194
 30
0.0
 10
3.108656141493055
 20
-3.341640896267361
 30
0.0
 10
3.088521321614583
 20
-3.297193739149305
 30
0.0
 10
3.088521321614583
 20
-3.247884114583333
 30
0.0
 10
3.088521321614583
 20
-3.198574490017361
 30
0.0
 10
3.108656141493055
 20
-3.154127332899305
 30
0.0
 10
3.140604654947917
 20
-3.122178819444444
 30
0.0
 10
3.162014431423611
 20
-3.100307888454861
 30
0.0
 10
3.189100477430555
 20
-3.084242078993055
 30
0.0
 10
3.219014485677083
 20
-3.075893825954861
 30
0.0
 10
3.219014485677083
 20
-3.075893825954861
 30
0.0
 10
3.219014485677083
 20
-3.003106011284722
 30
0.0
 10
3.219014485677083
 20
-3.003106011284722
 30
0.0
 10
3.169094509548611
 20
-3.012715657552083
 30
0.0
 10
3.124125162760417
 20
-3.037428114149305
 30
0.0
 10
3.08990478515625
 20
-3.072177463107639
 30
0.0
 10
3.046156141493055
 20
-3.117316351996528
 30
0.0
 10
3.017679850260417
 20
-3.179131401909722
 30
0.0
 10
3.017679850260417
 20
-3.247884114583333
 30
0.0
 10
3.017679850260417
 20
-3.316636827256944
 30
0.0
 10
3.046156141493055
 20
-3.378445095486111
 30
0.0
 10
3.08990478515625
 20
-3.423590766059028
 30
0.0
 10
3.124125162760417
 20
-3.458875868055555
 30
0.0
 10
3.169094509548611
 20
-3.483296712239583
 30
0.0
 10
3.219014485677083
 20
-3.492750379774305
 30
0.0
 10
3.219014485677083
 20
-3.492750379774305
 30
0.0
 10
3.219014485677083
 20
-3.419867621527778
 30
0.0
 10
3.219014485677083
 20
-3.419867621527778
 30
0.0
  0
SPLINE
  5
7B
330
76
100
AcDbEntity
  8
Layer 1
 62
     7
370
    35
100
AcDbSpline
210
0.0
220
0.0
230
1.0
 70
    11
 71
     3
 72
    35
 73
    31
 74
     0
 42
0.0000000001
 43
0.0000000001
 40
0.0
 40
0.0
 40
0.0
 40
0.0
 40
1.0
 40
1.0
 40
1.0
 40
2.0
 40
2.0
 40
2.0
 40
3.0
 40
3.0
 40
3.0
 40
4.0
 40
4.0
 40
4.0
 40
5.0
 40
5.0
 40
5.0
 40
6.0
 40
6.0
 40
6.0
 40
7.0
 40
7.0
 40
7.0
 40
8.0
 40
8.0
 40
8.0
 40
9.0
 40
9.0
 40
9.0
 40
10.0
 40
10.0
 40
10.0
 40
10.0
 10
3.440626356336805
 20
-3.072177463107639
 30
0.0
 10
3.405965169270833
 20
-3.037516276041667
 30
0.0
 10
3.361423068576389
 20
-3.012830946180555
 30
0.0
 10
3.311516655815972
 20
-3.003167046440972
 30
0.0
 10
3.311516655815972
 20
-3.003167046440972
 30
0.0
 10
3.311516655815972
 20
-3.076015896267361
 30
0.0
 10
3.311516655815972
 20
-3.076015896267361
 30
0.0
 10
3.341498480902778
 20
-3.084404839409722
 30
0.0
 10
3.368862575954861
 20
-3.100423177083333
 30
0.0
 10
3.390618218315972
 20
-3.122178819444444
 30
0.0
 10
3.421875
 20
-3.154127332899305
 30
0.0
 10
3.442009819878472
 20
-3.197882758246528
 30
0.0
 10
3.442009819878472
 20
-3.247884114583333
 30
0.0
 10
3.442009819878472
 20
-3.297885470920139
 30
0.0
 10
3.421875
 20
-3.341640896267361
 30
0.0
 10
3.390618218315972
 20
-3.373582628038194
 30
0.0
 10
3.368862575954861
 20
-3.395338270399305
 30
0.0
 10
3.341498480902778
 20
-3.411356608072917
 30
0.0
 10
3.311516655815972
 20
-3.419745551215278
 30
0.0
 10
3.311516655815972
 20
-3.419745551215278
 30
0.0
 10
3.311516655815972
 20
-3.492689344618055
 30
0.0
 10
3.311516655815972
 20
-3.492689344618055
 30
0.0
 10
3.361423068576389
 20
-3.483181423611111
 30
0.0
 10
3.405965169270833
 20
-3.458780924479167
 30
0.0
 10
3.440626356336805
 20
-3.423590766059028
 30
0.0
 10
3.484375
 20
-3.378445095486111
 30
0.0
 10
3.512851291232639
 20
-3.316636827256944
 30
0.0
 10
3.512851291232639
 20
-3.247884114583333
 30
0.0
 10
3.512851291232639
 20
-3.179131401909722
 30
0.0
 10
3.484375
 20
-3.117316351996528
 30
0.0
 10
3.440626356336805
 20
-3.072177463107639
 30
0.0
  0
ENDBLK
  5
79
330
76
100
AcDbEntity
  8
0
100
AcDbBlockEnd
  0
BLOCK
  5
7E
330
7C
100
AcDbEntity
  8
0
100
AcDbBlockBegin
  2
block 5
 70
     0
 71
     0
 10
0.0
 20
0.0
 30
0.0
  3
block 5
  1

  0
SPLINE
  5
80
330
7C
100
AcDbEntity
  8
Layer 1
 62
     7
370
    35
100
AcDbSpline
210
0.0
220
0.0
230
1.0
 70
    11
 71
     3
 72
    35
 73
    31
 74
     0
 42
0.0000000001
 43
0.0000000001
 40
0.0
 40
0.0
 40
0.0
 40
0.0
 40
1.0
 40
1.0
 40
1.0
 40
2.0
 40
2.0
 40
2.0
 40
3.0
 40
3.0
 40
3.0
 40
4.0
 40
4.0
 40
4.0
 40
5.0
 40
5.0
 40
5.0
 40
6.0
 40
6.0
 40
6.0
 40
7.0
 40
7.0
 40
7.0
 40
8.0
 40
8.0
 40
8.0
 40
9.0
 40
9.0
 40
9.0
 40
10.0
 40
10.0
 40
10.0
 40
10.0
 10
2.692626953125
 20
-3.419867621527778
 30
0.0
 10
2.662712944878472
 20
-3.411519368489583
 30
0.0
 10
2.635626898871528
 20
-3.395453559027778
 30
0.0
 10
2.614217122395833
 20
-3.373582628038194
 30
0.0
 10
2.582268608940972
 20
-3.341640896267361
 30
0.0
 10
2.5621337890625
 20
-3.297193739149305
 30
0.0
 10
2.5621337890625
 20
-3.247884114583333
 30
0.0
 10
2.5621337890625
 20
-3.198574490017361
 30
0.0
 10
2.582268608940972
 20
-3.154127332899305
 30
0.0
 10
2.614217122395833
 20
-3.122178819444444
 30
0.0
 10
2.635626898871528
 20
-3.100307888454861
 30
0.0
 10
2.662712944878472
 20
-3.084242078993055
 30
0.0
 10
2.692626953125
 20
-3.075893825954861
 30
0.0
 10
2.692626953125
 20
-3.075893825954861
 30
0.0
 10
2.692626953125
 20
-3.003106011284722
 30
0.0
 10
2.692626953125
 20
-3.003106011284722
 30
0.0
 10
2.642706976996528
 20
-3.012715657552083
 30
0.0
 10
2.597737630208333
 20
-3.037428114149305
 30
0.0
 10
2.563517252604167
 20
-3.072177463107639
 30
0.0
 10
2.519768608940972
 20
-3.117316351996528
 30
0.0
 10
2.491292317708333
 20
-3.179131401909722
 30
0.0
 10
2.491292317708333
 20
-3.247884114583333
 30
0.0
 10
2.491292317708333
 20
-3.316636827256944
 30
0.0
 10
2.519768608940972
 20
-3.378445095486111
 30
0.0
 10
2.563517252604167
 20
-3.423590766059028
 30
0.0
 10
2.597737630208333
 20
-3.458875868055555
 30
0.0
 10
2.642706976996528
 20
-3.483296712239583
 30
0.0
 10
2.692626953125
 20
-3.492750379774305
 30
0.0
 10
2.692626953125
 20
-3.492750379774305
 30
0.0
 10
2.692626953125
 20
-3.419867621527778
 30
0.0
 10
2.692626953125
 20
-3.419867621527778
 30
0.0
  0
SPLINE
  5
81
330
7C
100
AcDbEntity
  8
Layer 1
 62
     7
370
    35
100
AcDbSpline
210
0.0
220
0.0
230
1.0
 70
    11
 71
     3
 72
    35
 73
    31
 74
     0
 42
0.0000000001
 43
0.0000000001
 40
0.0
 40
0.0
 40
0.0
 40
0.0
 40
1.0
 40
1.0
 40
1.0
 40
2.0
 40
2.0
 40
2.0
 40
3.0
 40
3.0
 40
3.0
 40
4.0
 40
4.0
 40
4.0
 40
5.0
 40
5.0
 40
5.0
 40
6.0
 40
6.0
 40
6.0
 40
7.0
 40
7.0
 40
7.0
 40
8.0
 40
8.0
 40
8.0
 40
9.0
 40
9.0
 40
9.0
 40
10.0
 40
10.0
 40
10.0
 40
10.0
 10
2.914238823784722
 20
-3.072177463107639
 30
0.0
 10
2.87957763671875
 20
-3.037516276041667
 30
0.0
 10
2.835042317708333
 20
-3.012830946180555
 30
0.0
 10
2.785129123263889
 20
-3.003167046440972
 30
0.0
 10
2.785129123263889
 20
-3.003167046440972
 30
0.0
 10
2.785129123263889
 20
-3.076015896267361
 30
0.0
 10
2.785129123263889
 20
-3.076015896267361
 30
0.0
 10
2.815110948350694
 20
-3.084404839409722
 30
0.0
 10
2.842475043402778
 20
-3.100423177083333
 30
0.0
 10
2.864230685763889
 20
-3.122178819444444
 30
0.0
 10
2.895487467447917
 20
-3.154127332899305
 30
0.0
 10
2.915622287326389
 20
-3.197882758246528
 30
0.0
 10
2.915622287326389
 20
-3.247884114583333
 30
0.0
 10
2.915622287326389
 20
-3.297885470920139
 30
0.0
 10
2.895487467447917
 20
-3.341640896267361
 30
0.0
 10
2.864230685763889
 20
-3.373582628038194
 30
0.0
 10
2.842475043402778
 20
-3.395338270399305
 30
0.0
 10
2.815110948350694
 20
-3.411356608072917
 30
0.0
 10
2.785129123263889
 20
-3.419745551215278
 30
0.0
 10
2.785129123263889
 20
-3.419745551215278
 30
0.0
 10
2.785129123263889
 20
-3.492689344618055
 30
0.0
 10
2.785129123263889
 20
-3.492689344618055
 30
0.0
 10
2.835042317708333
 20
-3.483181423611111
 30
0.0
 10
2.87957763671875
 20
-3.458780924479167
 30
0.0
 10
2.914238823784722
 20
-3.423590766059028
 30
0.0
 10
2.957987467447917
 20
-3.378445095486111
 30
0.0
 10
2.986463758680555
 20
-3.316636827256944
 30
0.0
 10
2.986463758680555
 20
-3.247884114583333
 30
0.0
 10
2.986463758680555
 20
-3.179131401909722
 30
0.0
 10
2.957987467447917
 20
-3.117316351996528
 30
0.0
 10
2.914238823784722
 20
-3.072177463107639
 30
0.0
  0
ENDBLK
  5
7F
330
7C
100
AcDbEntity
  8
0
100
AcDbBlockEnd
  0
BLOCK
  5
84
330
82
100
AcDbEntity
  8
0
100
AcDbBlockBegin
  2
block 6
 70
     0
 71
     0
 10
0.0
 20
0.0
 30
0.0
  3
block 6
  1

  0
SPLINE
  5
86
330
82
100
AcDbEntity
  8
Layer 1
 62
     7
370
    35
100
AcDbSpline
210
0.0
220
0.0
230
1.0
 70
    11
 71
     3
 72
   116
 73
   112
 74
     0
 42
0.0000000001
 43
0.0000000001
 40
0.0
 40
0.0
 40
0.0
 40
0.0
 40
1.0
 40
1.0
 40
1.0
 40
2.0
 40
2.0
 40
2.0
 40
3.0
 40
3.0
 40
3.0
 40
4.0
 40
4.0
 40
4.0
 40
5.0
 40
5.0
 40
5.0
 40
6.0
 40
6.0
 40
6.0
 40
7.0
 40
7.0
 40
7.0
 40
8.0
 40
8.0
 40
8.0
 40
9.0
 40
9.0
 40
9.0
 40
10.0
 40
10.0
 40
10.0
 40
11.0
 40
11.0
 40
11.0
 40
12.0
 40
12.0
 40
12.0
 40
13.0
 40
13.0
 40
13.0
 40
14.0
 40
14.0
 40
14.0
 40
15.0
 40
15.0
 40
15.0
 40
16.0
 40
16.0
 40
16.0
 40
17.0
 40
17.0
 40
17.0
 40
18.0
 40
18.0
 40
18.0
 40
19.0
 40
19.0
 40
19.0
 40
20.0
 40
20.0
 40
20.0
 40
21.0
 40
21.0
 40
21.0
 40
22.0
 40
22.0
 40
22.0
 40
23.0
 40
23.0
 40
23.0
 40
24.0
 40
24.0
 40
24.0
 40
25.0
 40
25.0
 40
25.0
 40
26.0
 40
26.0
 40
26.0
 40
27.0
 40
27.0
 40
27.0
 40
28.0
 40
28.0
 40
28.0
 40
29.0
 40
29.0
 40
29.0
 40
30.0
 40
30.0
 40
30.0
 40
31.0
 40
31.0
 40
31.0
 40
32.0
 40
32.0
 40
32.0
 40
33.0
 40
33.0
 40
33.0
 40
34.0
 40
34.0
 40
34.0
 40
35.0
 40
35.0
 40
35.0
 40
36.0
 40
36.0
 40
36.0
 40
37.0
 40
37.0
 40
37.0
 40
37.0
 10
4.5670166015625
 20
-2.7041015625
 30
0.0
 10
4.579515245225694
 20
-2.658542209201389
 30
0.0
 10
4.600165473090278
 20
-2.623270670572917
 30
0.0
 10
4.628994411892361
 20
-2.598259819878472
 30
0.0
 10
4.657803005642361
 20
-2.573269314236111
 30
0.0
 10
4.690972222222222
 20
-2.560743543836805
 30
0.0
 10
4.728474934895833
 20
-2.560743543836805
 30
0.0
 10
4.754157172309028
 20
-2.560743543836805
 30
0.0
 10
4.778293185763888
 20
-2.566107855902778
 30
0.0
 10
4.800869411892361
 20
-2.576829698350694
 30
0.0
 10
4.82342529296875
 20
-2.587537977430555
 30
0.0
 10
4.843058268229166
 20
-2.602742513020833
 30
0.0
 10
4.859720865885416
 20
-2.62237548828125
 30
0.0
 10
4.876390245225694
 20
-2.642035590277778
 30
0.0
 10
4.889573838975694
 20
-2.665913899739583
 30
0.0
 10
4.899305555555555
 20
-2.694051106770833
 30
0.0
 10
4.909023708767361
 20
-2.722181532118055
 30
0.0
 10
4.913886176215278
 20
-2.753221299913194
 30
0.0
 10
4.913886176215278
 20
-2.787156846788194
 30
0.0
 10
4.913886176215278
 20
-2.787156846788194
 30
0.0
 10
4.913886176215278
 20
-3.252034505208333
 30
0.0
 10
4.913886176215278
 20
-3.252034505208333
 30
0.0
 10
4.913886176215278
 20
-3.305623372395833
 30
0.0
 10
4.931599934895833
 20
-3.332417805989583
 30
0.0
 10
4.967013888888888
 20
-3.332417805989583
 30
0.0
 10
4.978814019097222
 20
-3.332417805989583
 30
0.0
 10
4.987847222222222
 20
-3.327724880642361
 30
0.0
 10
4.994099934895833
 20
-3.318352593315972
 30
0.0
 10
5.000345865885416
 20
-3.308973524305555
 30
0.0
 10
5.005900065104166
 20
-3.294908311631944
 30
0.0
 10
5.010762532552083
 20
-3.276156955295139
 30
0.0
 10
5.010762532552083
 20
-3.276156955295139
 30
0.0
 10
5.154513888888888
 20
-2.7041015625
 30
0.0
 10
5.154513888888888
 20
-2.7041015625
 30
0.0
 10
5.166314019097222
 20
-2.658542209201389
 30
0.0
 10
5.186971028645833
 20
-2.623270670572917
 30
0.0
 10
5.216498480902778
 20
-2.598259819878472
 30
0.0
 10
5.245998806423611
 20
-2.573269314236111
 30
0.0
 10
5.279161241319444
 20
-2.560743543836805
 30
0.0
 10
5.315972222222222
 20
-2.560743543836805
 30
0.0
 10
5.341661241319444
 20
-2.560743543836805
 30
0.0
 10
5.365790473090278
 20
-2.566107855902778
 30
0.0
 10
5.388359917534722
 20
-2.576829698350694
 30
0.0
 10
5.410929361979166
 20
-2.587537977430555
 30
0.0
 10
5.430555555555555
 20
-2.602742513020833
 30
0.0
 10
5.447224934895833
 20
-2.62237548828125
 30
0.0
 10
5.463880750868055
 20
-2.642035590277778
 30
0.0
 10
5.477064344618055
 20
-2.665913899739583
 30
0.0
 10
5.486802842881944
 20
-2.694051106770833
 30
0.0
 10
5.496514214409722
 20
-2.722181532118055
 30
0.0
 10
5.501397026909722
 20
-2.753221299913194
 30
0.0
 10
5.501397026909722
 20
-2.787156846788194
 30
0.0
 10
5.501397026909722
 20
-2.787156846788194
 30
0.0
 10
5.501397026909722
 20
-3.486484103732639
 30
0.0
 10
5.501397026909722
 20
-3.486484103732639
 30
0.0
 10
5.501397026909722
 20
-3.486484103732639
 30
0.0
 10
5.368055555555555
 20
-3.486484103732639
 30
0.0
 10
5.368055555555555
 20
-3.486484103732639
 30
0.0
 10
5.368055555555555
 20
-3.486484103732639
 30
0.0
 10
5.368055555555555
 20
-2.803236219618055
 30
0.0
 10
5.368055555555555
 20
-2.803236219618055
 30
0.0
 10
5.368055555555555
 20
-2.749647352430555
 30
0.0
 10
5.349989149305555
 20
-2.722852918836805
 30
0.0
 10
5.313883463541666
 20
-2.722852918836805
 30
0.0
 10
5.302069769965278
 20
-2.722852918836805
 30
0.0
 10
5.293212890625
 20
-2.728000217013889
 30
0.0
 10
5.287326388888888
 20
-2.738254123263889
 30
0.0
 10
5.281412760416666
 20
-2.74853515625
 30
0.0
 10
5.276028103298611
 20
-2.763041178385417
 30
0.0
 10
5.271185980902778
 20
-2.781792534722222
 30
0.0
 10
5.271185980902778
 20
-2.781792534722222
 30
0.0
 10
5.125352647569444
 20
-3.352518717447917
 30
0.0
 10
5.125352647569444
 20
-3.352518717447917
 30
0.0
 10
5.115614149305555
 20
-3.398064507378472
 30
0.0
 10
5.095662434895833
 20
-3.433566623263889
 30
0.0
 10
5.065456814236111
 20
-3.459018283420139
 30
0.0
 10
5.035237630208333
 20
-3.484483506944444
 30
0.0
 10
5.001729329427083
 20
-3.497205946180555
 30
0.0
 10
4.964931911892361
 20
-3.497205946180555
 30
0.0
 10
4.938530815972222
 20
-3.497205946180555
 30
0.0
 10
4.914232042100694
 20
-3.491841634114583
 30
0.0
 10
4.892015245225694
 20
-3.481133355034722
 30
0.0
 10
4.869778103298611
 20
-3.470411512586805
 30
0.0
 10
4.850348578559028
 20
-3.455234103732639
 30
0.0
 10
4.83367919921875
 20
-3.435574001736111
 30
0.0
 10
4.8170166015625
 20
-3.415941026475694
 30
0.0
 10
4.803995768229166
 20
-3.392035590277778
 30
0.0
 10
4.79461669921875
 20
-3.363905164930555
 30
0.0
 10
4.785244411892361
 20
-3.335767957899305
 30
0.0
 10
4.780558268229166
 20
-3.304741753472222
 30
0.0
 10
4.780558268229166
 20
-3.270792643229167
 30
0.0
 10
4.780558268229166
 20
-3.270792643229167
 30
0.0
 10
4.780558268229166
 20
-2.803236219618055
 30
0.0
 10
4.780558268229166
 20
-2.803236219618055
 30
0.0
 10
4.780558268229166
 20
-2.749647352430555
 30
0.0
 10
4.762491861979166
 20
-2.722852918836805
 30
0.0
 10
4.726386176215278
 20
-2.722852918836805
 30
0.0
 10
4.714572482638888
 20
-2.722852918836805
 30
0.0
 10
4.705898708767361
 20
-2.728000217013889
 30
0.0
 10
4.700344509548611
 20
-2.738254123263889
 30
0.0
 10
4.694783528645833
 20
-2.74853515625
 30
0.0
 10
4.689229329427083
 20
-2.763041178385417
 30
0.0
 10
4.683681911892361
 20
-2.781792534722222
 30
0.0
 10
4.683681911892361
 20
-2.781792534722222
 30
0.0
 10
4.492011176215278
 20
-3.486484103732639
 30
0.0
 10
4.492011176215278
 20
-3.486484103732639
 30
0.0
 10
4.492011176215278
 20
-3.486484103732639
 30
0.0
 10
4.350348578559028
 20
-3.486484103732639
 30
0.0
 10
4.350348578559028
 20
-3.486484103732639
 30
0.0
 10
4.350348578559028
 20
-3.486484103732639
 30
0.0
 10
4.5670166015625
 20
-2.7041015625
 30
0.0
 10
4.5670166015625
 20
-2.7041015625
 30
0.0
  0
ENDBLK
  5
85
330
82
100
AcDbEntity
  8
0
100
AcDbBlockEnd
  0
ENDSEC
  0
SECTION
  2
ENTITIES
  0
INSERT
  5
3D
330
1F
100
AcDbEntity
  8
Layer 1
100
AcDbBlockReference
  2
block 2
 10
0.0
 20
0.0
 30
0.0
  0
ENDSEC
  0
SECTION
  2
OBJECTS
  0
DICTIONARY
  5
C
330
0
100
AcDbDictionary
281
     1
  3
ACAD_GROUP
350
D
  3
ACAD_LAYOUT
350
1A
  3
ACAD_MLINESTYLE
350
17
  3
ACAD_PLOTSETTINGS
350
19
  3
ACAD_PLOTSTYLENAME
350
E
  3
ACAD_TABLESTYLE
350
87
  3
ACAD_VISUALSTYLE
350
2A
  0
DICTIONARY
  5
D
102
{ACAD_REACTORS
330
C
102
}
330
C
100
AcDbDictionary
281
     1
  0
DICTIONARY
  5
1A
102
{ACAD_REACTORS
330
C
102
}
330
C
100
AcDbDictionary
281
     1
  3
Layout1
350
1E
  3
Layout2
350
26
  3
Model
350
22
  0
DICTIONARY
  5
17
102
{ACAD_REACTORS
330
C
102
}
330
C
100
AcDbDictionary
281
     1
  3
Standard
350
18
  0
DICTIONARY
  5
19
102
{ACAD_REACTORS
330
C
102
}
330
C
100
AcDbDictionary
281
     1
  0
ACDBDICTIONARYWDFLT
  5
E
102
{ACAD_REACTORS
330
C
102
}
330
C
100
AcDbDictionary
281
     1
  3
Normal
350
F
100
AcDbDictionaryWithDefault
340
F
  0
DICTIONARY
  5
87
102
{ACAD_REACTORS
330
C
102
}
330
C
100
AcDbDictionary
281
     1
  0
DICTIONARY
  5
2A
102
{ACAD_REACTORS
330
C
102
}
330
C
100
AcDbDictionary
281
     1
  3
2dWireframe
350
2F
  3
3D Hidden
350
31
  3
3dWireframe
350
30
  3
Basic
350
32
  3
Brighten
350
36
  3
ColorChange
350
3A
  3
Conceptual
350
34
  3
Dim
350
35
  3
Facepattern
350
39
  3
Flat
350
2B
  3
FlatWithEdges
350
2C
  3
Gouraud
350
2D
  3
GouraudWithEdges
350
2E
  3
Linepattern
350
38
  3
Realistic
350
33
  3
Thicken
350
37
  0
LAYOUT
  5
1E
102
{ACAD_REACTORS
330
1A
102
}
330
1A
100
AcDbPlotSettings
  1

  2
none_device
  4

  6

 40
0.0
 41
0.0
 42
0.0
 43
0.0
 44
0.0
 45
0.0
 46
0.0
 47
0.0
 48
0.0
 49
0.0
140
0.0
141
0.0
142
1.0
143
1.0
 70
   688
 72
     0
 73
     0
 74
     5
  7

 75
    16
 76
     0
 77
     2
 78
   300
147
1.0
148
0.0
149
0.0
100
AcDbLayout
  1
Layout1
 70
     1
 71
     1
 10
0.0
 20
0.0
 11
12.0
 21
9.0
 12
0.0
 22
0.0
 32
0.0
 14
1.000000000000000E+20
 24
1.000000000000000E+20
 34
1.000000000000000E+20
 15
-1.000000000000000E+20
 25
-1.000000000000000E+20
 35
-1.000000000000000E+20
146
0.0
 13
0.0
 23
0.0
 33
0.0
 16
1.0
 26
0.0
 36
0.0
 17
0.0
 27
1.0
 37
0.0
 76
     0
330
1B
  0
LAYOUT
  5
26
102
{ACAD_REACTORS
330
1A
102
}
330
1A
100
AcDbPlotSettings
  1

  2
none_device
  4

  6

 40
0.0
 41
0.0
 42
0.0
 43
0.0
 44
0.0
 45
0.0
 46
0.0
 47
0.0
 48
0.0
 49
0.0
140
0.0
141
0.0
142
1.0
143
1.0
 70
   688
 72
     0
 73
     0
 74
     5
  7

 75
    16
 76
     0
 77
     2
 78
   300
147
1.0
148
0.0
149
0.0
100
AcDbLayout
  1
Layout2
 70
     1
 71
     2
 10
0.0
 20
0.0
 11
0.0
 21
0.0
 12
0.0
 22
0.0
 32
0.0
 14
0.0
 24
0.0
 34
0.0
 15
0.0
 25
0.0
 35
0.0
146
0.0
 13
0.0
 23
0.0
 33
0.0
 16
1.0
 26
0.0
 36
0.0
 17
0.0
 27
1.0
 37
0.0
 76
     0
330
23
  0
LAYOUT
  5
22
102
{ACAD_REACTORS
330
1A
102
}
330
1A
100
AcDbPlotSettings
  1

  2
none_device
  4

  6

 40
0.0
 41
0.0
 42
0.0
 43
0.0
 44
0.0
 45
0.0
 46
0.0
 47
0.0
 48
0.0
 49
0.0
140
0.0
141
0.0
142
1.0
143
1.0
 70
  1712
 72
     0
 73
     0
 74
     0
  7

 75
     0
 76
     0
 77
     2
 78
   300
147
1.0
148
0.0
149
0.0
100
AcDbLayout
  1
Model
 70
     1
 71
     0
 10
0.0
 20
0.0
 11
12.0
 21
9.0
 12
0.0
 22
0.0
 32
0.0
 14
1.000000000000000E+20
 24
1.000000000000000E+20
 34
1.000000000000000E+20
 15
-1.000000000000000E+20
 25
-1.000000000000000E+20
 35
-1.000000000000000E+20
146
0.0
 13
0.0
 23
0.0
 33
0.0
 16
1.0
 26
0.0
 36
0.0
 17
0.0
 27
1.0
 37
0.0
 76
     0
330
1F
331
29
  0
MLINESTYLE
  5
18
102
{ACAD_REACTORS
330
17
102
}
330
17
100
AcDbMlineStyle
  2
Standard
 70
     0
  3

 62
   256
 51
90.0
 52
90.0
 71
     2
 49
0.5
 62
   256
  6
BYLAYER
 49
-0.5
 62
   256
  6
BYLAYER
  0
ACDBPLACEHOLDER
  5
F
102
{ACAD_REACTORS
330
E
102
}
330
E
  0
VISUALSTYLE
  5
2F
102
{ACAD_REACTORS
330
2A
102
}
330
2A
100
AcDbVisualStyle
  2
2dWireframe
 70
     4
 71
     0
 72
     2
 73
     0
 90
        0
 40
-0.6
 41
-30.0
 62
     5
 63
     7
421
 16777215
 74
     1
 91
        4
 64
     7
 65
   257
 75
     1
175
     1
 42
1.0
 92
        0
 66
   257
 43
1.0
 76
     1
 77
     6
 78
     2
 67
     7
 79
     5
170
     0
171
     0
290
     0
174
     0
 93
        1
 44
0.0
173
     0
291
     0
 45
0.0
1001
ACAD
1000
AcDbSavedByObjectVersion
1070
     0
  0
VISUALSTYLE
  5
31
102
{ACAD_REACTORS
330
2A
102
}
330
2A
100
AcDbVisualStyle
  2
3D Hidden
 70
     6
 71
     1
 72
     2
 73
     2
 90
        0
 40
-0.6
 41
-30.0
 62
     5
 63
     7
421
 16777215
 74
     2
 91
        2
 64
     7
 65
   257
 75
     2
175
     1
 42
40.0
 92
        0
 66
   257
 43
1.0
 76
     1
 77
     6
 78
     2
 67
     7
 79
     3
170
     0
171
     0
290
     0
174
     0
 93
        1
 44
0.0
173
     0
291
     0
 45
0.0
1001
ACAD
1000
AcDbSavedByObjectVersion
1070
     0
  0
VISUALSTYLE
  5
30
102
{ACAD_REACTORS
330
2A
102
}
330
2A
100
AcDbVisualStyle
  2
3dWireframe
 70
     5
 71
     0
 72
     2
 73
     0
 90
        0
 40
-0.6
 41
-30.0
 62
     5
 63
     7
421
 16777215
 74
     1
 91
        4
 64
     7
 65
   257
 75
     1
175
     1
 42
1.0
 92
        0
 66
   257
 43
1.0
 76
     1
 77
     6
 78
     2
 67
     7
 79
     5
170
     0
171
     0
290
     0
174
     0
 93
        1
 44
0.0
173
     0
291
     0
 45
0.0
1001
ACAD
1000
AcDbSavedByObjectVersion
1070
     0
  0
VISUALSTYLE
  5
32
102
{ACAD_REACTORS
330
2A
102
}
330
2A
100
AcDbVisualStyle
  2
Basic
 70
     7
 71
     1
 72
     0
 73
     1
 90
        0
 40
-0.6
 41
-30.0
 62
     5
 63
     7
421
 16777215
 74
     0
 91
        4
 64
     7
 65
   257
 75
     1
175
     1
 42
1.0
 92
        8
 66
     7
 43
1.0
 76
     1
 77
     6
 78
     2
 67
     7
 79
     5
170
     0
171
     0
290
     0
174
     0
 93
        1
 44
0.0
173
     0
291
     1
 45
0.0
1001
ACAD
1000
AcDbSavedByObjectVersion
1070
     0
  0
VISUALSTYLE
  5
36
102
{ACAD_REACTORS
330
2A
102
}
330
2A
100
AcDbVisualStyle
  2
Brighten
 70
    12
 71
     2
 72
     2
 73
     0
 90
        0
 40
-0.6
 41
-30.0
 62
     5
 63
     7
421
 16777215
 74
     1
 91
        4
 64
     7
 65
   257
 75
     1
175
     1
 42
1.0
 92
        8
 66
     7
 43
1.0
 76
     1
 77
     6
 78
     2
 67
     7
 79
     5
170
     0
171
     0
290
     0
174
     0
 93
        1
 44
50.0
173
     0
291
     1
 45
0.0
1001
ACAD
1000
AcDbSavedByObjectVersion
1070
     0
  0
VISUALSTYLE
  5
3A
102
{ACAD_REACTORS
330
2A
102
}
330
2A
100
AcDbVisualStyle
  2
ColorChange
 70
    16
 71
     2
 72
     2
 73
     3
 90
        0
 40
-0.6
 41
-30.0
 62
     5
 63
     8
421
  8421504
 74
     1
 91
        4
 64
     7
 65
   257
 75
     1
175
     1
 42
1.0
 92
        8
 66
     8
424
  8421504
 43
1.0
 76
     1
 77
     6
 78
     2
 67
     7
 79
     5
170
     0
171
     0
290
     0
174
     0
 93
        1
 44
0.0
173
     0
291
     1
 45
0.0
1001
ACAD
1000
AcDbSavedByObjectVersion
1070
     0
  0
VISUALSTYLE
  5
34
102
{ACAD_REACTORS
330
2A
102
}
330
2A
100
AcDbVisualStyle
  2
Conceptual
 70
     9
 71
     3
 72
     2
 73
     0
 90
        0
 40
-0.6
 41
-30.0
 62
     5
 63
     7
421
 16777215
 74
     2
 91
        2
 64
     7
 65
   257
 75
     1
175
     1
 42
40.0
 92
        8
 66
     7
 43
1.0
 76
     1
 77
     6
 78
     2
 67
     7
 79
     3
170
     0
171
     0
290
     0
174
     0
 93
        1
 44
0.0
173
     0
291
     0
 45
0.0
1001
ACAD
1000
AcDbSavedByObjectVersion
1070
     0
  0
VISUALSTYLE
  5
35
102
{ACAD_REACTORS
330
2A
102
}
330
2A
100
AcDbVisualStyle
  2
Dim
 70
    11
 71
     2
 72
     2
 73
     0
 90
        0
 40
-0.6
 41
-30.0
 62
     5
 63
     7
421
 16777215
 74
     1
 91
        4
 64
     7
 65
   257
 75
     1
175
     1
 42
1.0
 92
        8
 66
     7
 43
1.0
 76
     1
 77
     6
 78
     2
 67
     7
 79
     5
170
     0
171
     0
290
     0
174
     0
 93
        1
 44
-50.0
173
     0
291
     1
 45
0.0
1001
ACAD
1000
AcDbSavedByObjectVersion
1070
     0
  0
VISUALSTYLE
  5
39
102
{ACAD_REACTORS
330
2A
102
}
330
2A
100
AcDbVisualStyle
  2
Facepattern
 70
    15
 71
     2
 72
     2
 73
     0
 90
        0
 40
-0.6
 41
-30.0
 62
     5
 63
     7
421
 16777215
 74
     1
 91
        4
 64
     7
 65
   257
 75
     1
175
     1
 42
1.0
 92
        8
 66
     7
 43
1.0
 76
     1
 77
     6
 78
     2
 67
     7
 79
     5
170
     0
171
     0
290
     0
174
     0
 93
        1
 44
0.0
173
     0
291
     1
 45
0.0
1001
ACAD
1000
AcDbSavedByObjectVersion
1070
     0
  0
VISUALSTYLE
  5
2B
102
{ACAD_REACTORS
330
2A
102
}
330
2A
100
AcDbVisualStyle
  2
Flat
 70
     0
 71
     2
 72
     1
 73
     1
 90
        2
 40
-0.6
 41
30.0
 62
     5
 63
     7
421
 16777215
 74
     0
 91
        4
 64
     7
 65
   257
 75
     1
175
     1
 42
1.0
 92
        8
 66
     7
 43
1.0
 76
     1
 77
     6
 78
     2
 67
     7
 79
     5
170
     0
171
     0
290
     0
174
     0
 93
       13
 44
0.0
173
     0
291
     1
 45
0.0
1001
ACAD
1000
AcDbSavedByObjectVersion
1070
     0
  0
VISUALSTYLE
  5
2C
102
{ACAD_REACTORS
330
2A
102
}
330
2A
100
AcDbVisualStyle
  2
FlatWithEdges
 70
     1
 71
     2
 72
     1
 73
     1
 90
        2
 40
-0.6
 41
30.0
 62
     5
 63
     7
421
 16777215
 74
     1
 91
        4
 64
     7
 65
   257
 75
     1
175
     1
 42
1.0
 92
        0
 66
   257
 43
1.0
 76
     1
 77
     6
 78
     2
 67
     7
 79
     5
170
     0
171
     0
290
     0
174
     0
 93
       13
 44
0.0
173
     0
291
     1
 45
0.0
1001
ACAD
1000
AcDbSavedByObjectVersion
1070
     0
  0
VISUALSTYLE
  5
2D
102
{ACAD_REACTORS
330
2A
102
}
330
2A
100
AcDbVisualStyle
  2
Gouraud
 70
     2
 71
     2
 72
     2
 73
     1
 90
        2
 40
-0.6
 41
30.0
 62
     5
 63
     7
421
 16777215
 74
     0
 91
        4
 64
     7
 65
   257
 75
     1
175
     1
 42
1.0
 92
        0
 66
     7
 43
1.0
 76
     1
 77
     6
 78
     2
 67
     7
 79
     5
170
     0
171
     0
290
     0
174
     0
 93
       13
 44
0.0
173
     0
291
     1
 45
0.0
1001
ACAD
1000
AcDbSavedByObjectVersion
1070
     0
  0
VISUALSTYLE
  5
2E
102
{ACAD_REACTORS
330
2A
102
}
330
2A
100
AcDbVisualStyle
  2
GouraudWithEdges
 70
     3
 71
     2
 72
     2
 73
     1
 90
        2
 40
-0.6
 41
30.0
 62
     5
 63
     7
421
 16777215
 74
     1
 91
        4
 64
     7
 65
   257
 75
     1
175
     1
 42
1.0
 92
        0
 66
   257
 43
1.0
 76
     1
 77
     6
 78
     2
 67
     7
 79
     5
170
     0
171
     0
290
     0
174
     0
 93
       13
 44
0.0
173
     0
291
     1
 45
0.0
1001
ACAD
1000
AcDbSavedByObjectVersion
1070
     0
  0
VISUALSTYLE
  5
38
102
{ACAD_REACTORS
330
2A
102
}
330
2A
100
AcDbVisualStyle
  2
Linepattern
 70
    14
 71
     2
 72
     2
 73
     0
 90
        0
 40
-0.6
 41
-30.0
 62
     5
 63
     7
421
 16777215
 74
     1
 91
        4
 64
     7
 65
   257
 75
     7
175
     7
 42
1.0
 92
        8
 66
     7
 43
1.0
 76
     1
 77
     6
 78
     2
 67
     7
 79
     5
170
     0
171
     0
290
     0
174
     0
 93
        1
 44
0.0
173
     0
291
     1
 45
0.0
1001
ACAD
1000
AcDbSavedByObjectVersion
1070
     0
  0
VISUALSTYLE
  5
33
102
{ACAD_REACTORS
330
2A
102
}
330
2A
100
AcDbVisualStyle
  2
Realistic
 70
     8
 71
     2
 72
     2
 73
     0
 90
        0
 40
-0.6
 41
-30.0
 62
     5
 63
     7
421
 16777215
 74
     1
 91
        0
 64
     7
 65
   257
 75
     1
175
     1
 42
1.0
 92
        8
 66
     8
424
  7895160
 43
1.0
 76
     1
 77
     6
 78
     2
 67
     7
 79
     5
170
     0
171
     0
290
     0
174
     0
 93
       13
 44
0.0
173
     0
291
     0
 45
0.0
1001
ACAD
1000
AcDbSavedByObjectVersion
1070
     0
  0
VISUALSTYLE
  5
37
102
{ACAD_REACTORS
330
2A
102
}
330
2A
100
AcDbVisualStyle
  2
Thicken
 70
    13
 71
     2
 72
     2
 73
     0
 90
        0
 40
-0.6
 41
-30.0
 62
     5
 63
     7
421
 16777215
 74
     1
 91
        4
 64
     7
 65
   257
 75
     1
175
     1
 42
1.0
 92
       12
 66
     7
 43
1.0
 76
     1
 77
     6
 78
     2
 67
     7
 79
     5
170
     0
171
     0
290
     0
174
     0
 93
        1
 44
0.0
173
     0
291
     1
 45
0.0
1001
ACAD
1000
AcDbSavedByObjectVersion
1070
     0
  0
ENDSEC
  0
EOF
